<svg id="visual" viewBox="0 0 900 675" width="900" height="675" xmlns="http://www.w3.org/2000/svg" xmlns:xlink="http://www.w3.org/1999/xlink" version="1.1"><rect width="900" height="675" fill="#931F1F"></rect><g><g transform="translate(444 361)"><path d="M112 -34.4C125.8 6.1 104.3 60 68.1 84C31.8 108.1 -19.1 102.2 -56 75.7C-92.9 49.2 -115.8 2.1 -104.1 -35.5C-92.4 -73 -46.2 -100.9 1.4 -101.4C49.1 -101.9 98.2 -74.9 112 -34.4Z" stroke="#F7760E" fill="none" stroke-width="20"></path></g><g transform="translate(128 137)"><path d="M87.1 -27.1C97.5 3.5 79.7 44.4 50.6 64.4C21.4 84.3 -19.2 83.3 -46.8 63.5C-74.4 43.6 -89 5 -79 -25.1C-69 -55.1 -34.5 -76.6 1.9 -77.2C38.4 -77.9 76.8 -57.7 87.1 -27.1Z" stroke="#F7760E" fill="none" stroke-width="20"></path></g><g transform="translate(826 362)"><path d="M61.7 -19.8C69.2 3 57.1 32.4 35.9 47.2C14.8 62 -15.3 62.3 -35.9 47.7C-56.5 33.2 -67.5 3.8 -59.9 -19.1C-52.4 -41.9 -26.2 -58.3 0.5 -58.5C27.1 -58.6 54.3 -42.5 61.7 -19.8Z" stroke="#F7760E" fill="none" stroke-width="20"></path></g></g></svg>