<svg id="visual" viewBox="0 0 1280 360" width="1280" height="360" xmlns="http://www.w3.org/2000/svg" xmlns:xlink="http://www.w3.org/1999/xlink" version="1.1"><rect x="0" y="0" width="1280" height="360" fill="#140021"></rect><path d="M0 123L107 123L107 153L213 153L213 74L320 74L320 140L427 140L427 172L533 172L533 98L640 98L640 75L747 75L747 96L853 96L853 73L960 73L960 102L1067 102L1067 115L1173 115L1173 178L1280 178L1280 131L1280 361L1280 361L1173 361L1173 361L1067 361L1067 361L960 361L960 361L853 361L853 361L747 361L747 361L640 361L640 361L533 361L533 361L427 361L427 361L320 361L320 361L213 361L213 361L107 361L107 361L0 361Z" fill="#00bdff"></path><path d="M0 181L107 181L107 123L213 123L213 159L320 159L320 125L427 125L427 121L533 121L533 185L640 185L640 137L747 137L747 118L853 118L853 137L960 137L960 151L1067 151L1067 123L1173 123L1173 198L1280 198L1280 181L1280 361L1280 361L1173 361L1173 361L1067 361L1067 361L960 361L960 361L853 361L853 361L747 361L747 361L640 361L640 361L533 361L533 361L427 361L427 361L320 361L320 361L213 361L213 361L107 361L107 361L0 361Z" fill="#009fe5"></path><path d="M0 252L107 252L107 193L213 193L213 245L320 245L320 252L427 252L427 235L533 235L533 261L640 261L640 190L747 190L747 256L853 256L853 256L960 256L960 203L1067 203L1067 187L1173 187L1173 218L1280 218L1280 245L1280 361L1280 361L1173 361L1173 361L1067 361L1067 361L960 361L960 361L853 361L853 361L747 361L747 361L640 361L640 361L533 361L533 361L427 361L427 361L320 361L320 361L213 361L213 361L107 361L107 361L0 361Z" fill="#0082c9"></path><path d="M0 223L107 223L107 222L213 222L213 236L320 236L320 220L427 220L427 232L533 232L533 238L640 238L640 271L747 271L747 265L853 265L853 268L960 268L960 229L1067 229L1067 237L1173 237L1173 277L1280 277L1280 271L1280 361L1280 361L1173 361L1173 361L1067 361L1067 361L960 361L960 361L853 361L853 361L747 361L747 361L640 361L640 361L533 361L533 361L427 361L427 361L320 361L320 361L213 361L213 361L107 361L107 361L0 361Z" fill="#0066ac"></path><path d="M0 283L107 283L107 310L213 310L213 302L320 302L320 299L427 299L427 312L533 312L533 325L640 325L640 274L747 274L747 314L853 314L853 293L960 293L960 325L1067 325L1067 323L1173 323L1173 329L1280 329L1280 286L1280 361L1280 361L1173 361L1173 361L1067 361L1067 361L960 361L960 361L853 361L853 361L747 361L747 361L640 361L640 361L533 361L533 361L427 361L427 361L320 361L320 361L213 361L213 361L107 361L107 361L0 361Z" fill="#004b8f"></path></svg>