<svg id="visual" viewBox="0 0 900 675" width="900" height="675" xmlns="http://www.w3.org/2000/svg" xmlns:xlink="http://www.w3.org/1999/xlink" version="1.1"><g stroke-width="1" stroke-linejoin="bevel"><path d="M471 313.3L481 371.7L571 360.7Z" fill="#277297" stroke="#277297"></path><path d="M419 444.1L483 447.1L481 371.7Z" fill="#0c2435" stroke="#0c2435"></path><path d="M481 371.7L483 447.1L571 360.7Z" fill="#0c2435" stroke="#0c2435"></path><path d="M471 313.3L410 292.3L481 371.7Z" fill="#1d4e6b" stroke="#1d4e6b"></path><path d="M688 362.7L637 298.3L571 360.7Z" fill="#112e42" stroke="#112e42"></path><path d="M571 360.7L637 298.3L471 313.3Z" fill="#1d4e6b" stroke="#1d4e6b"></path><path d="M471 313.3L429 222.9L410 292.3Z" fill="#15384f" stroke="#15384f"></path><path d="M514 183.9L429 222.9L471 313.3Z" fill="#00101c" stroke="#00101c"></path><path d="M361 392.7L419 444.1L481 371.7Z" fill="#297ea6" stroke="#297ea6"></path><path d="M612 203.9L514 183.9L471 313.3Z" fill="#0c2435" stroke="#0c2435"></path><path d="M637 298.3L612 203.9L471 313.3Z" fill="#246688" stroke="#246688"></path><path d="M532 538.6L581 483.1L483 447.1Z" fill="#00101c" stroke="#00101c"></path><path d="M483 447.1L581 483.1L571 360.7Z" fill="#205a7a" stroke="#205a7a"></path><path d="M581 483.1L688 362.7L571 360.7Z" fill="#19435d" stroke="#19435d"></path><path d="M637 298.3L699 208.9L612 203.9Z" fill="#246688" stroke="#246688"></path><path d="M305 359.7L361 392.7L410 292.3Z" fill="#0c2435" stroke="#0c2435"></path><path d="M410 292.3L361 392.7L481 371.7Z" fill="#081a28" stroke="#081a28"></path><path d="M425 567.6L532 538.6L483 447.1Z" fill="#246688" stroke="#246688"></path><path d="M830 395.7L766 298.3L688 362.7Z" fill="#297ea6" stroke="#297ea6"></path><path d="M688 362.7L725 299.3L637 298.3Z" fill="#205a7a" stroke="#205a7a"></path><path d="M725 299.3L699 208.9L637 298.3Z" fill="#1d4e6b" stroke="#1d4e6b"></path><path d="M627 134.4L463 124.4L514 183.9Z" fill="#00101c" stroke="#00101c"></path><path d="M514 183.9L463 124.4L429 222.9Z" fill="#277297" stroke="#277297"></path><path d="M274 272.3L305 359.7L410 292.3Z" fill="#297ea6" stroke="#297ea6"></path><path d="M627 134.4L514 183.9L612 203.9Z" fill="#19435d" stroke="#19435d"></path><path d="M274 272.3L410 292.3L429 222.9Z" fill="#277297" stroke="#277297"></path><path d="M271 505.1L425 567.6L419 444.1Z" fill="#112e42" stroke="#112e42"></path><path d="M419 444.1L425 567.6L483 447.1Z" fill="#246688" stroke="#246688"></path><path d="M699 208.9L627 134.4L612 203.9Z" fill="#00101c" stroke="#00101c"></path><path d="M688 362.7L766 298.3L725 299.3Z" fill="#0c2435" stroke="#0c2435"></path><path d="M725 299.3L766 298.3L699 208.9Z" fill="#112e42" stroke="#112e42"></path><path d="M730 514.1L688 362.7L581 483.1Z" fill="#112e42" stroke="#112e42"></path><path d="M271 505.1L419 444.1L361 392.7Z" fill="#00101c" stroke="#00101c"></path><path d="M283 165.9L274 272.3L429 222.9Z" fill="#246688" stroke="#246688"></path><path d="M668 568.6L581 483.1L624 596.6Z" fill="#277297" stroke="#277297"></path><path d="M668 568.6L730 514.1L581 483.1Z" fill="#19435d" stroke="#19435d"></path><path d="M624 596.6L581 483.1L532 538.6Z" fill="#19435d" stroke="#19435d"></path><path d="M514 675L624 596.6L532 538.6Z" fill="#081a28" stroke="#081a28"></path><path d="M730 514.1L766 479.1L688 362.7Z" fill="#00101c" stroke="#00101c"></path><path d="M374 78.4L283 165.9L429 222.9Z" fill="#277297" stroke="#277297"></path><path d="M483 0L374 78.4L463 124.4Z" fill="#0c2435" stroke="#0c2435"></path><path d="M463 124.4L374 78.4L429 222.9Z" fill="#246688" stroke="#246688"></path><path d="M177 381.7L271 505.1L305 359.7Z" fill="#00101c" stroke="#00101c"></path><path d="M305 359.7L271 505.1L361 392.7Z" fill="#277297" stroke="#277297"></path><path d="M766 479.1L830 395.7L688 362.7Z" fill="#205a7a" stroke="#205a7a"></path><path d="M699 208.9L679 59.4L627 134.4Z" fill="#00101c" stroke="#00101c"></path><path d="M594 0L483 0L463 124.4Z" fill="#246688" stroke="#246688"></path><path d="M808 99.4L679 59.4L699 208.9Z" fill="#246688" stroke="#246688"></path><path d="M826 172.9L699 208.9L766 298.3Z" fill="#1d4e6b" stroke="#1d4e6b"></path><path d="M212 172.9L201 312.3L274 272.3Z" fill="#205a7a" stroke="#205a7a"></path><path d="M274 272.3L201 312.3L305 359.7Z" fill="#205a7a" stroke="#205a7a"></path><path d="M271 505.1L271 542.6L425 567.6Z" fill="#00101c" stroke="#00101c"></path><path d="M189 484.1L271 542.6L271 505.1Z" fill="#205a7a" stroke="#205a7a"></path><path d="M283 165.9L212 172.9L274 272.3Z" fill="#205a7a" stroke="#205a7a"></path><path d="M374 78.4L260 125.4L283 165.9Z" fill="#205a7a" stroke="#205a7a"></path><path d="M594 0L463 124.4L627 134.4Z" fill="#246688" stroke="#246688"></path><path d="M318 0L234 101.4L260 125.4Z" fill="#246688" stroke="#246688"></path><path d="M730 514.1L762 574.6L766 479.1Z" fill="#00101c" stroke="#00101c"></path><path d="M900 479.1L900 387.7L830 395.7Z" fill="#277297" stroke="#277297"></path><path d="M668 568.6L762 574.6L730 514.1Z" fill="#277297" stroke="#277297"></path><path d="M683 675L762 574.6L668 568.6Z" fill="#0c2435" stroke="#0c2435"></path><path d="M425 567.6L514 675L532 538.6Z" fill="#112e42" stroke="#112e42"></path><path d="M624 596.6L683 675L668 568.6Z" fill="#081a28" stroke="#081a28"></path><path d="M415 675L514 675L425 567.6Z" fill="#00101c" stroke="#00101c"></path><path d="M679 59.4L594 0L627 134.4Z" fill="#1d4e6b" stroke="#1d4e6b"></path><path d="M900 280.3L826 172.9L766 298.3Z" fill="#15384f" stroke="#15384f"></path><path d="M130 321.3L177 381.7L201 312.3Z" fill="#112e42" stroke="#112e42"></path><path d="M201 312.3L177 381.7L305 359.7Z" fill="#112e42" stroke="#112e42"></path><path d="M260 125.4L212 172.9L283 165.9Z" fill="#00101c" stroke="#00101c"></path><path d="M514 675L621 675L624 596.6Z" fill="#1d4e6b" stroke="#1d4e6b"></path><path d="M285 675L415 675L425 567.6Z" fill="#19435d" stroke="#19435d"></path><path d="M679 59.4L660 0L594 0Z" fill="#19435d" stroke="#19435d"></path><path d="M810 0L660 0L679 59.4Z" fill="#0c2435" stroke="#0c2435"></path><path d="M177 381.7L189 484.1L271 505.1Z" fill="#0c2435" stroke="#0c2435"></path><path d="M271 542.6L285 675L425 567.6Z" fill="#277297" stroke="#277297"></path><path d="M483 0L365 0L374 78.4Z" fill="#0c2435" stroke="#0c2435"></path><path d="M260 125.4L234 101.4L212 172.9Z" fill="#112e42" stroke="#112e42"></path><path d="M826 172.9L808 99.4L699 208.9Z" fill="#15384f" stroke="#15384f"></path><path d="M318 0L260 125.4L374 78.4Z" fill="#0c2435" stroke="#0c2435"></path><path d="M621 675L683 675L624 596.6Z" fill="#1d4e6b" stroke="#1d4e6b"></path><path d="M189 484.1L232 577.6L271 542.6Z" fill="#246688" stroke="#246688"></path><path d="M900 479.1L830 395.7L766 479.1Z" fill="#205a7a" stroke="#205a7a"></path><path d="M830 395.7L900 280.3L766 298.3Z" fill="#205a7a" stroke="#205a7a"></path><path d="M826 172.9L900 162.9L808 99.4Z" fill="#112e42" stroke="#112e42"></path><path d="M900 387.7L900 280.3L830 395.7Z" fill="#1d4e6b" stroke="#1d4e6b"></path><path d="M365 0L318 0L374 78.4Z" fill="#1d4e6b" stroke="#1d4e6b"></path><path d="M82 172.9L130 321.3L212 172.9Z" fill="#15384f" stroke="#15384f"></path><path d="M212 172.9L130 321.3L201 312.3Z" fill="#15384f" stroke="#15384f"></path><path d="M177 381.7L79 451.1L189 484.1Z" fill="#1d4e6b" stroke="#1d4e6b"></path><path d="M900 546.6L766 479.1L762 574.6Z" fill="#00101c" stroke="#00101c"></path><path d="M900 546.6L900 479.1L766 479.1Z" fill="#00101c" stroke="#00101c"></path><path d="M232 577.6L285 675L271 542.6Z" fill="#15384f" stroke="#15384f"></path><path d="M900 280.3L900 162.9L826 172.9Z" fill="#277297" stroke="#277297"></path><path d="M130 321.3L108 372.7L177 381.7Z" fill="#00101c" stroke="#00101c"></path><path d="M189 484.1L108 579.6L232 577.6Z" fill="#246688" stroke="#246688"></path><path d="M232 577.6L205 675L285 675Z" fill="#00101c" stroke="#00101c"></path><path d="M836 675L900 546.6L762 574.6Z" fill="#15384f" stroke="#15384f"></path><path d="M900 56.4L810 0L808 99.4Z" fill="#246688" stroke="#246688"></path><path d="M808 99.4L810 0L679 59.4Z" fill="#1d4e6b" stroke="#1d4e6b"></path><path d="M108 372.7L79 451.1L177 381.7Z" fill="#112e42" stroke="#112e42"></path><path d="M683 675L836 675L762 574.6Z" fill="#081a28" stroke="#081a28"></path><path d="M108 579.6L205 675L232 577.6Z" fill="#15384f" stroke="#15384f"></path><path d="M318 0L197 0L234 101.4Z" fill="#19435d" stroke="#19435d"></path><path d="M92 131.4L82 172.9L212 172.9Z" fill="#00101c" stroke="#00101c"></path><path d="M0 249.3L0 385.7L108 372.7Z" fill="#246688" stroke="#246688"></path><path d="M108 372.7L0 385.7L79 451.1Z" fill="#19435d" stroke="#19435d"></path><path d="M92 131.4L212 172.9L234 101.4Z" fill="#112e42" stroke="#112e42"></path><path d="M900 162.9L900 56.4L808 99.4Z" fill="#297ea6" stroke="#297ea6"></path><path d="M197 0L92 131.4L234 101.4Z" fill="#277297" stroke="#277297"></path><path d="M79 451.1L108 579.6L189 484.1Z" fill="#081a28" stroke="#081a28"></path><path d="M900 56.4L900 0L810 0Z" fill="#112e42" stroke="#112e42"></path><path d="M836 675L900 675L900 546.6Z" fill="#081a28" stroke="#081a28"></path><path d="M0 249.3L108 372.7L130 321.3Z" fill="#081a28" stroke="#081a28"></path><path d="M79 451.1L0 515.1L108 579.6Z" fill="#112e42" stroke="#112e42"></path><path d="M0 249.3L130 321.3L82 172.9Z" fill="#297ea6" stroke="#297ea6"></path><path d="M0 230.9L0 249.3L82 172.9Z" fill="#00101c" stroke="#00101c"></path><path d="M0 61.4L82 172.9L92 131.4Z" fill="#0c2435" stroke="#0c2435"></path><path d="M0 61.4L0 230.9L82 172.9Z" fill="#246688" stroke="#246688"></path><path d="M197 0L88 0L92 131.4Z" fill="#205a7a" stroke="#205a7a"></path><path d="M0 385.7L0 515.1L79 451.1Z" fill="#112e42" stroke="#112e42"></path><path d="M108 579.6L85 675L205 675Z" fill="#081a28" stroke="#081a28"></path><path d="M0 561.6L85 675L108 579.6Z" fill="#246688" stroke="#246688"></path><path d="M0 515.1L0 561.6L108 579.6Z" fill="#081a28" stroke="#081a28"></path><path d="M88 0L0 61.4L92 131.4Z" fill="#205a7a" stroke="#205a7a"></path><path d="M88 0L0 0L0 61.4Z" fill="#1d4e6b" stroke="#1d4e6b"></path><path d="M0 561.6L0 675L85 675Z" fill="#15384f" stroke="#15384f"></path></g></svg>