<svg id="visual" viewBox="0 0 900 675" width="900" height="675" xmlns="http://www.w3.org/2000/svg" xmlns:xlink="http://www.w3.org/1999/xlink" version="1.1"><path d="M0 251L82 197L164 136L245 258L327 339L409 258L491 177L573 129L655 264L736 197L818 143L900 102L900 0L818 0L736 0L655 0L573 0L491 0L409 0L327 0L245 0L164 0L82 0L0 0Z" fill="#00cc8e"></path><path d="M0 386L82 305L164 271L245 386L327 420L409 312L491 258L573 244L655 366L736 291L818 237L900 150L900 100L818 141L736 195L655 262L573 127L491 175L409 256L327 337L245 256L164 134L82 195L0 249Z" fill="#00b98a"></path><path d="M0 487L82 406L164 318L245 453L327 467L409 393L491 305L573 305L655 420L736 345L818 352L900 251L900 148L818 235L736 289L655 364L573 242L491 256L409 310L327 418L245 384L164 269L82 303L0 384Z" fill="#00a784"></path><path d="M0 609L82 521L164 615L245 548L327 595L409 494L491 555L573 548L655 575L736 568L818 528L900 487L900 249L818 350L736 343L655 418L573 303L491 303L409 391L327 465L245 451L164 316L82 404L0 485Z" fill="#00957c"></path><path d="M0 676L82 676L164 676L245 676L327 676L409 676L491 676L573 676L655 676L736 676L818 676L900 676L900 485L818 526L736 566L655 573L573 546L491 553L409 492L327 593L245 546L164 613L82 519L0 607Z" fill="#038373"></path></svg>